# xmcd CD database file
#
# Track frame offsets:
#	150
#	25127
#	41412
#
# Disc length: 883 seconds
#
# Revision: 1
# Processed by: cddbd v1.5.2PL0 Copyright (c) Steve Scherf et al.
# Submitted via: CDex 1.70beta2
#
DISCID=19037103
DTITLE=BROSS - あなたに逢いに行かなくちゃ
DYEAR=1993
DGENRE=JPop
TTITLE0=あなたに逢いに行かなくちゃ
TTITLE1=コミュニケーション
TTITLE2=あなたに逢いに行かなくちゃ（カラオケ）
EXTD=YEAR: 1993
EXTT0=
EXTT1=
EXTT2=
PLAYORDER=
